osim_states
version=1
nRows=4
nColumns=185
inDegrees=yes

# SIMM Motion File Header:
name osim_states
datacolumns 185
datarows 4
otherdata 1
range 0.03912281 0.03953898
endheader
time	platform_rx	platform_ry	platform_rz	platform_ty	pelvis_tilt	pelvis_list	pelvis_rotation	pelvis_tx	pelvis_ty	pelvis_tz	hip_flexion_r	hip_adduction_r	hip_rotation_r	knee_angle_r	patella_r_constrained_knee_angle	ankle_angle_r	subtalar_angle_r	mtp_angle_r	hip_flexion_l	hip_adduction_l	hip_rotation_l	knee_angle_l	patella_l_constrained_knee_angle	ankle_angle_l	subtalar_angle_l	mtp_angle_l	lumbar_extension	lumbar_bending	lumbar_rotation	arm_flex_r	arm_add_r	arm_rot_r	elbow_flex_r	pro_sup_r	wrist_flex_r	wrist_dev_r	arm_flex_l	arm_add_l	arm_rot_l	elbow_flex_l	pro_sup_l	wrist_flex_l	wrist_dev_l	platform_rx_u	platform_ry_u	platform_rz_u	platform_ty_u	pelvis_tilt_u	pelvis_list_u	pelvis_rotation_u	pelvis_tx_u	pelvis_ty_u	pelvis_tz_u	hip_flexion_r_u	hip_adduction_r_u	hip_rotation_r_u	knee_angle_r_u	patella_r_constrained_knee_angle_u	ankle_angle_r_u	subtalar_angle_r_u	mtp_angle_r_u	hip_flexion_l_u	hip_adduction_l_u	hip_rotation_l_u	knee_angle_l_u	patella_l_constrained_knee_angle_u	ankle_angle_l_u	subtalar_angle_l_u	mtp_angle_l_u	lumbar_extension_u	lumbar_bending_u	lumbar_rotation_u	arm_flex_r_u	arm_add_r_u	arm_rot_r_u	elbow_flex_r_u	pro_sup_r_u	wrist_flex_r_u	wrist_dev_r_u	arm_flex_l_u	arm_add_l_u	arm_rot_l_u	elbow_flex_l_u	pro_sup_l_u	wrist_flex_l_u	wrist_dev_l_u	glut_med1_r.activation	glut_med1_r.fiber_length	glut_med2_r.activation	glut_med2_r.fiber_length	glut_med3_r.activation	glut_med3_r.fiber_length	glut_min1_r.activation	glut_min1_r.fiber_length	glut_min2_r.activation	glut_min2_r.fiber_length	glut_min3_r.activation	glut_min3_r.fiber_length	semimem_r.activation	semimem_r.fiber_length	semiten_r.activation	semiten_r.fiber_length	bifemlh_r.activation	bifemlh_r.fiber_length	bifemsh_r.activation	bifemsh_r.fiber_length	sar_r.activation	sar_r.fiber_length	add_long_r.activation	add_long_r.fiber_length	add_brev_r.activation	add_brev_r.fiber_length	add_mag1_r.activation	add_mag1_r.fiber_length	add_mag2_r.activation	add_mag2_r.fiber_length	add_mag3_r.activation	add_mag3_r.fiber_length	tfl_r.activation	tfl_r.fiber_length	pect_r.activation	pect_r.fiber_length	grac_r.activation	grac_r.fiber_length	glut_max1_r.activation	glut_max1_r.fiber_length	glut_max2_r.activation	glut_max2_r.fiber_length	glut_max3_r.activation	glut_max3_r.fiber_length	iliacus_r.activation	iliacus_r.fiber_length	psoas_r.activation	psoas_r.fiber_length	quad_fem_r.activation	quad_fem_r.fiber_length	gem_r.activation	gem_r.fiber_length	peri_r.activation	peri_r.fiber_length	rect_fem_r.activation	rect_fem_r.fiber_length	vas_med_r.activation	vas_med_r.fiber_length	vas_int_r.activation	vas_int_r.fiber_length	vas_lat_r.activation	vas_lat_r.fiber_length	med_gas_r.activation	med_gas_r.fiber_length	lat_gas_r.activation	lat_gas_r.fiber_length	soleus_r.activation	soleus_r.fiber_length	tib_post_r.activation	tib_post_r.fiber_length	flex_dig_r.activation	flex_dig_r.fiber_length	flex_hal_r.activation	flex_hal_r.fiber_length	tib_ant_r.activation	tib_ant_r.fiber_length	per_brev_r.activation	per_brev_r.fiber_length	per_long_r.activation	per_long_r.fiber_length	per_tert_r.activation	per_tert_r.fiber_length	ext_dig_r.activation	ext_dig_r.fiber_length	ext_hal_r.activation	ext_hal_r.fiber_length	ercspn_r.activation	ercspn_r.fiber_length	ercspn_l.activation	ercspn_l.fiber_length	intobl_r.activation	intobl_r.fiber_length	intobl_l.activation	intobl_l.fiber_length	extobl_r.activation	extobl_r.fiber_length	extobl_l.activation	extobl_l.fiber_length
      0.03912281	     30.00000000	      0.00000000	      0.00000000	      0.00000000	    -14.11586300	      5.72239530	     15.73283579	     -0.42597067	      0.98984417	      0.34220389	     33.79458082	     -9.37115872	    -12.14760455	    -27.78490111	    -27.78490111	      7.14825066	      3.90677798	      0.00001318	     52.13915936	     -0.00000000	     -9.99811353	   -101.98648811	   -101.98648811	      6.49999992	      0.00000000	     -0.00000000	    -11.70480771	     -6.30720843	    -10.37436635	      0.00000000	     -8.91003344	      0.00000000	     72.06682857	     46.23690339	     -0.00000000	      4.87402477	     -0.00000000	     -8.91003344	     -0.00000000	     72.06682857	     46.23690339	      0.00000000	      4.87402477	     -0.00000000	     -0.00000000	      0.00000000	      0.00000000	    -14.57885617	    -71.18978341	   -251.89217285	     -0.03343077	     -1.94030657	      0.46959133	    469.39657709	     21.86833285	   -116.70547182	   -779.51358409	   -779.51358409	    471.54799528	    701.68174581	      0.00000000	      0.00000000	     -0.00000000	      0.00000000	     -0.00000000	      0.00000000	      0.00000000	      0.00000000	     -0.00000000	    -66.57072181	     73.88588727	    266.20929571	      0.00000000	     -0.00000000	      0.00000000	     -0.00000000	     -0.00000000	     -0.00000000	     -0.00000000	     -0.00000000	      0.00000000	     -0.00000000	     -0.00000000	     -0.00000000	      0.00000000	     -0.00000000	      0.24594283	      0.05285838	      0.19368715	      0.08852561	      0.21282983	      0.06799327	      0.19360794	      0.07325076	      0.22855248	      0.06132671	      0.28733563	      0.03821984	      0.21522417	      0.07591474	      0.47830965	      0.24371163	      0.34748451	      0.11840266	      0.24721961	      0.17270036	      0.03310622	      0.45919648	      0.03310622	      0.11030300	      0.03310622	      0.13142118	      0.03343007	      0.07740089	      0.04277249	      0.10606985	      0.05647101	      0.13637064	      0.05731825	      0.08934086	      0.03310622	      0.06869859	      0.03310622	      0.35102094	      0.11041987	      0.09697112	      0.10422382	      0.11012103	      0.08816689	      0.13737027	      0.03310622	      0.08833036	      0.03310622	      0.08125794	      0.09519078	      0.04605667	      0.15324807	      0.01859013	      0.22445086	      0.01843699	      0.15212796	      0.10172547	      0.14379350	      0.07548731	      0.17936578	      0.07696413	      0.14715891	      0.07102085	      0.30519831	      0.05376187	      0.31400900	      0.05781389	      0.37953035	      0.04909547	      0.55932000	      0.02956199	      0.55932000	      0.02479741	      0.55932000	      0.03341784	      0.23386845	      0.09449527	      0.60000000	      0.05057111	      0.60000000	      0.04625547	      0.60000000	      0.08180256	      0.60000000	      0.09631059	      0.55932000	      0.10472059	      0.13381797	      0.13470170	      0.08572071	      0.12273758	      0.03310622	      0.09349245	      0.05966079	      0.08525901	      0.15642580	      0.13372327	      0.05732879	      0.10619327
      0.03926153	     30.00000000	      0.00000000	      0.00000000	      0.00000000	    -14.11788390	      5.71252161	     15.69779808	     -0.42597549	      0.98957522	      0.34226910	     33.85986946	     -9.36811508	    -12.16352982	    -27.89327462	    -27.89327462	      7.21329197	      4.00398195	      0.00001318	     52.13915936	     -0.00000000	     -9.99811353	   -101.98648811	   -101.98648811	      6.49999992	      0.00000000	     -0.00000000	    -11.71407344	     -6.29696888	    -10.33734637	      0.00000000	     -8.91003344	      0.00000000	     72.06682857	     46.23690339	     -0.00000000	      4.87402477	     -0.00000000	     -8.91003344	     -0.00000000	     72.06682857	     46.23690339	      0.00000000	      4.87402477	     -0.00000000	     -0.00000000	      0.00000000	      0.00000000	    -14.55500216	    -71.16026373	   -253.23359391	     -0.03596515	     -1.93709402	      0.47058762	    471.82944739	     22.02576669	   -112.89773739	   -782.84155763	   -782.84155763	    466.17059693	    699.63802032	      0.00000000	      0.00000000	     -0.00000000	      0.00000000	     -0.00000000	      0.00000000	      0.00000000	      0.00000000	     -0.00000000	    -67.01296461	     73.73901349	    267.49586861	      0.00000000	     -0.00000000	      0.00000000	     -0.00000000	     -0.00000000	     -0.00000000	     -0.00000000	     -0.00000000	      0.00000000	     -0.00000000	     -0.00000000	     -0.00000000	      0.00000000	     -0.00000000	      0.24752955	      0.05288489	      0.19550379	      0.08856171	      0.21543758	      0.06802753	      0.19388889	      0.07327157	      0.22922141	      0.06134882	      0.28901402	      0.03824218	      0.21509749	      0.07589857	      0.47833246	      0.24369684	      0.34743109	      0.11839083	      0.24719228	      0.17265062	      0.03306222	      0.45909448	      0.03306222	      0.11027704	      0.03306222	      0.13141876	      0.03390927	      0.07740788	      0.04408706	      0.10608818	      0.05799688	      0.13639549	      0.05722941	      0.08934282	      0.03306222	      0.06867536	      0.03306222	      0.35098776	      0.11212447	      0.09701083	      0.10604033	      0.11016226	      0.09081819	      0.13741481	      0.03306222	      0.08829273	      0.03306222	      0.08122676	      0.09500112	      0.04605320	      0.15288606	      0.01858106	      0.22603091	      0.01844889	      0.15275320	      0.10175620	      0.14579355	      0.07555507	      0.18158535	      0.07703474	      0.14921491	      0.07108833	      0.30607733	      0.05377157	      0.31488214	      0.05782275	      0.38082613	      0.04912729	      0.55932000	      0.02956519	      0.55932000	      0.02480040	      0.55932000	      0.03342465	      0.23374811	      0.09443314	      0.60000000	      0.05062670	      0.60000000	      0.04630928	      0.60000000	      0.08178411	      0.60000000	      0.09624132	      0.55932000	      0.10463259	      0.13380764	      0.13469518	      0.08624221	      0.12275592	      0.03306222	      0.09348346	      0.05955938	      0.08525374	      0.15635466	      0.13368286	      0.05761725	      0.10620612
      0.03940026	     30.00000000	      0.00000000	      0.00000000	      0.00000000	    -14.11990081	      5.70265180	     15.66258055	     -0.42598064	      0.98930671	      0.34233445	     33.92547731	     -9.36504404	    -12.17893034	    -28.00207997	    -28.00207997	      7.27759675	      4.10088166	      0.00001318	     52.13915936	     -0.00000000	     -9.99811353	   -101.98648811	   -101.98648811	      6.49999992	      0.00000000	     -0.00000000	    -11.72340017	     -6.28674941	    -10.30015381	      0.00000000	     -8.91003344	      0.00000000	     72.06682857	     46.23690339	     -0.00000000	      4.87402477	     -0.00000000	     -8.91003344	     -0.00000000	     72.06682857	     46.23690339	      0.00000000	      4.87402477	     -0.00000000	     -0.00000000	      0.00000000	      0.00000000	    -14.52126232	    -71.13409502	   -254.48526303	     -0.03834086	     -1.93404347	      0.47154253	    474.00075143	     22.26227164	   -109.14122722	   -785.74366358	   -785.74366358	    460.94286767	    697.34449370	      0.00000000	      0.00000000	     -0.00000000	      0.00000000	     -0.00000000	      0.00000000	      0.00000000	      0.00000000	     -0.00000000	    -67.45039546	     73.59645382	    268.69801880	      0.00000000	     -0.00000000	      0.00000000	     -0.00000000	     -0.00000000	     -0.00000000	     -0.00000000	     -0.00000000	      0.00000000	     -0.00000000	     -0.00000000	     -0.00000000	      0.00000000	     -0.00000000	      0.24905240	      0.05291124	      0.19728902	      0.08859784	      0.21803374	      0.06806203	      0.19393426	      0.07329063	      0.22984411	      0.06137077	      0.29066525	      0.03826452	      0.21497052	      0.07588243	      0.47835404	      0.24368203	      0.34737741	      0.11837913	      0.24716401	      0.17260013	      0.03301831	      0.45899174	      0.03301831	      0.11025092	      0.03301831	      0.13141646	      0.03461069	      0.07741612	      0.04542496	      0.10610698	      0.05954920	      0.13642093	      0.05713881	      0.08934463	      0.03301831	      0.06865203	      0.03301831	      0.35095442	      0.11382511	      0.09705090	      0.10785907	      0.11020399	      0.09349420	      0.13746031	      0.03301831	      0.08825438	      0.03301831	      0.08119468	      0.09481197	      0.04605029	      0.15252524	      0.01857206	      0.22764997	      0.01846095	      0.15337865	      0.10178710	      0.14779475	      0.07562341	      0.18380304	      0.07710595	      0.15127438	      0.07115640	      0.30694502	      0.05378088	      0.31574382	      0.05783122	      0.38211272	      0.04915864	      0.55932000	      0.02956828	      0.55932000	      0.02480329	      0.55932000	      0.03343128	      0.23362712	      0.09437103	      0.60000000	      0.05068220	      0.60000000	      0.04636308	      0.60000000	      0.08176629	      0.60000000	      0.09617265	      0.55932000	      0.10454502	      0.13379719	      0.13468866	      0.08676317	      0.12277432	      0.03301831	      0.09347462	      0.05945820	      0.08524813	      0.15628268	      0.13364209	      0.05790524	      0.10621903
      0.03953898	     30.00000000	      0.00000000	      0.00000000	      0.00000000	    -14.12191237	      5.69278538	     15.62719534	     -0.42598612	      0.98903862	      0.34239993	     33.99136894	     -9.36193494	    -12.19381328	    -28.11125942	    -28.11125942	      7.34118482	      4.19744029	      0.00001318	     52.13915936	     -0.00000000	     -9.99811353	   -101.98648811	   -101.98648811	      6.49999992	      0.00000000	     -0.00000000	    -11.73278728	     -6.27654942	    -10.26280009	      0.00000000	     -8.91003344	      0.00000000	     72.06682857	     46.23690339	     -0.00000000	      4.87402477	     -0.00000000	     -8.91003344	     -0.00000000	     72.06682857	     46.23690339	      0.00000000	      4.87402477	     -0.00000000	     -0.00000000	      0.00000000	      0.00000000	    -14.47797576	    -71.11131008	   -255.65164351	     -0.04056627	     -1.93114476	      0.47245827	    475.92271837	     22.57411059	   -105.43598321	   -788.23759552	   -788.23759552	    455.81975007	    694.66720733	      0.00000000	      0.00000000	     -0.00000000	      0.00000000	     -0.00000000	      0.00000000	      0.00000000	      0.00000000	     -0.00000000	    -67.88346584	     73.45826829	    269.81993287	      0.00000000	     -0.00000000	      0.00000000	     -0.00000000	     -0.00000000	     -0.00000000	     -0.00000000	     -0.00000000	      0.00000000	     -0.00000000	     -0.00000000	     -0.00000000	      0.00000000	     -0.00000000	      0.25051236	      0.05293742	      0.19904232	      0.08863402	      0.22061662	      0.06809677	      0.19402999	      0.07331041	      0.23042158	      0.06139254	      0.29228919	      0.03828687	      0.21484326	      0.07586633	      0.47837438	      0.24366720	      0.34732348	      0.11836754	      0.24713476	      0.17254894	      0.03297448	      0.45888833	      0.03297448	      0.11022466	      0.03297448	      0.13141427	      0.03545723	      0.07742524	      0.04678422	      0.10612623	      0.06112656	      0.13644696	      0.05704652	      0.08934631	      0.03297448	      0.06862861	      0.03297448	      0.35092093	      0.11552022	      0.09709134	      0.10967809	      0.11024619	      0.09619150	      0.13750675	      0.03297448	      0.08821551	      0.03297448	      0.08116170	      0.09462332	      0.04604792	      0.15216559	      0.01856311	      0.22930667	      0.01847317	      0.15400367	      0.10181815	      0.14979521	      0.07569228	      0.18601692	      0.07717771	      0.15333531	      0.07122503	      0.30780148	      0.05378983	      0.31659414	      0.05783933	      0.38339014	      0.04918954	      0.55932000	      0.02957126	      0.55932000	      0.02480609	      0.55932000	      0.03343774	      0.23350547	      0.09430893	      0.60000000	      0.05073758	      0.60000000	      0.04641685	      0.60000000	      0.08174908	      0.60000000	      0.09610456	      0.55932000	      0.10445791	      0.13378660	      0.13468213	      0.08728343	      0.12279278	      0.03297448	      0.09346592	      0.05935725	      0.08524218	      0.15620986	      0.13360098	      0.05819255	      0.10623198
